<svg version="1.2" xmlns="http://www.w3.org/2000/svg" viewBox="0 0 97 80" width="97" height="80" fill="#231f20">
	<path fill-rule="evenodd" class="a"
		  d="m97.3 79.6h-97.2l14-2.6 6.9-9.3 7.5-1.6 8.2-35.4c1-1.5 2-2.2 3.7-2.3l9.1-1 1.4-0.5-0.1-0.5-14.4 1.3v0.5l2.3 0.1-0.8 0.3c-0.5 0.6-0.8 0.9-1.3 1-3.5-0.2-5.7-0.5-5.7-0.8v-1.7l-2.5-0.1 3.4-24.8c0-0.5 2.6-1 6.8-1.3l0.4 9.3q2.5-0.3 5.5-0.4l0.8-9.5h7l0.6 9.5c2 0.1 4.4 0 6 0.2l0.4-9.1c4.1 0.3 6.8 0.8 6.8 1.4l3.2 24.7-2.5 0.1 0.1 2c0 0.3-2.5 0.3-6.2 0.5l8.1 36.5 7.6 1.6 6.9 9.3zm-60.6-48.9q-0.1 0-0.1 0.1l0.3-1.1zm2.8-0.4l1.3-0.3c0 0 0.5-0.4 0.9-0.5l1.5-0.4-0.5-0.1c0 0-1.5 0.1-2.1 0.4-0.7 0.3-1.1 0.9-1.1 0.9zm1.5 30.3l-9.4 1.9c0.2 0.4 0.8 1.1 0.8 1.6-0.2 0.9-0.1 1.3 0.9 1.1 1.6-0.3 3.1-0.7 4.7-0.8h5.3c0.3-1.5 0.7-2.7 0.8-3.9 0-0.5-0.5-1.4-0.5-1.3-1.8 0.5-2.4-1.5-4-1.9 2.5 0.3 2.3-1.6 2.6-2.8l1.8 1.4 1.4-3.9c-1.5 0.1-2.7 0.4-3.8 0.3-1.1-0.1-1.3 0.4-1.5 1.4q0 0.4-0.1 0.9 0 0.4-0.1 0.8-0.1 0.5-0.3 0.9-0.2 0.4-0.4 0.8c-0.6 1.1-1.7 2.1-2.7 3.2h4.4zm2.2 5.8v-0.2l3.9-0.4c-0.4-1.1-1.6-0.7-2.4-0.7l-8.1 0.6-5.4 0.7c-1.1 0.3-2.2 0.9-3.1 1.3 0.5 0.3 1 0.7 0.2 1.7-0.7 0.7-1.1 1.5-1.6 2.4l-1.9 4.1-0.9-0.6c-0.7 2.4-2.7 1.5-4.6 1.9 3.6 0.7 12.3 0.3 12.6-0.3l2.8 0.6c-0.5-0.3-1.5-0.7-1.4-0.8q0.7-3.4 1.6-6.7c0.1-0.4 0.8-1 1.1-1q0.7 0.1 1.3-0.1 0.7-0.1 1.3-0.4 0.6-0.2 1.1-0.6 0.5-0.5 0.8-1c1.2 1.9 2.9 2.3 4.7 1.8l-0.5-1.8zm-1.9-53l2.1-0.1 2.5-0.1 0.1-0.4h-3.3c-2.1 0-3.9 0.4-3.9 0.4l-0.2 0.2 0.1 0.2zm10.8 11.7l-0.6-0.4c0 0-1.2 0.5-1.7 0.5-0.5 0.1-1.9-0.2-3.7-0.2-1.7 0-4.3 0.5-4.3 0.5l0.3 0.3 4.2-0.3h3.6l1.6 0.3zm5.2-12.1l-5.3-0.2 0.5 0.4 2.7 0.2h0.5z"/>
</svg>
